<?xml version="1.0" encoding="utf-8"?>
<!-- Generator: Adobe Illustrator 21.1.0, SVG Export Plug-In . SVG Version: 6.00 Build 0)  -->
<svg version="1.1" id="Layer_1" xmlns="http://www.w3.org/2000/svg" xmlns:xlink="http://www.w3.org/1999/xlink" x="0px" y="0px"
	 viewBox="0 0 35.2 35.2" style="enable-background:new 0 0 35.2 35.2;" xml:space="preserve">
<style type="text/css">
	.st0{fill:#6666FF;}
</style>
<path id="Shape" class="st0" d="M24.5,12.2c-5.7-3.5-13.4,0.3-8.4-4.8c5.4-5.5,7.9-2,8.5,0.6c0.6,2.5,5.4,0.6,4.2-3.9
	c-0.8-3.2-6.1-4.7-9.8-4C14.3,1,5.7,7.7,5.9,17.3c0.3,11.6,5.4,17,11.6,17.8C29.9,36.6,33,17.4,24.5,12.2z M23.2,22.8
	c-0.8,6.5-5.4,6.6-8.5,3.4c-2.8-3-4.3-9.5-0.2-9.8C19.7,16,23.7,19.2,23.2,22.8z"/>
</svg>
